<svg id="Layer_1" data-name="Layer 1" xmlns="http://www.w3.org/2000/svg" viewBox="0 0 978.65 191.72"><defs><style>.cls-1{fill:#fff;}</style></defs><title>171016_BombayBustle_GreeterDesk_Signage</title><rect class="cls-1" y="184.08" width="978.65" height="7.64"/><rect class="cls-1" width="978.65" height="7.64"/><path class="cls-1" d="M332.25,131.23v-1.94h12.67q3.51,0,7-.21t7-.21a23.43,23.43,0,0,1,6.88,1.11,17.68,17.68,0,0,1,6.58,3.75,19.84,19.84,0,0,1,4.91,7.08,28.12,28.12,0,0,1,1.93,11.11A24,24,0,0,1,377.25,162a22.44,22.44,0,0,1-4.57,6.73,20.81,20.81,0,0,1-5.58,4,22.11,22.11,0,0,1-4.91,1.81v.55a28.2,28.2,0,0,1,6.8,1.81,18.55,18.55,0,0,1,6.46,4.37,23.46,23.46,0,0,1,4.86,7.85,33.26,33.26,0,0,1,1.93,12.21,31.62,31.62,0,0,1-2.47,13.34,24.61,24.61,0,0,1-6,8.33,20.54,20.54,0,0,1-7.59,4.23,25.89,25.89,0,0,1-7.22,1.18q-3.53,0-7-.14c-2.32-.09-4.66-.14-7-.14H332.25v-1.94H340v-95Zm23.32,42.91a9.61,9.61,0,0,0,6-1.67,10,10,0,0,0,3.26-4.51,23.34,23.34,0,0,0,1.39-6.46c.19-2.4.29-4.86.29-7.36a92.5,92.5,0,0,0-.5-10.48,27.66,27.66,0,0,0-1.68-7.22,8.27,8.27,0,0,0-8.47-5.62A12.55,12.55,0,0,0,354,131l-1.85.28v42.91ZM357,226.63a11,11,0,0,0,4.82-1,8.62,8.62,0,0,0,3.65-4,27.17,27.17,0,0,0,2.3-8.13,94,94,0,0,0,.8-13.67c0-1.58-.09-3.68-.25-6.32a36.14,36.14,0,0,0-1.39-7.85,19,19,0,0,0-3.43-6.73,7.9,7.9,0,0,0-6.5-2.85h-4.87v50.13A26.69,26.69,0,0,0,357,226.63Z" transform="translate(-325.07 -83.23)"/><path class="cls-1" d="M358.92,230.88q-3.57,0-7.09-.14t-6.91-.14H329.8v-6.84h7.72V133.68H329.8v-6.84h15.12c2.29,0,4.58-.07,6.81-.2,4.73-.29,9.5-.6,14.71,1a20.18,20.18,0,0,1,7.48,4.26,22.23,22.23,0,0,1,5.53,7.94,30.37,30.37,0,0,1,2.14,12.08A26.46,26.46,0,0,1,379.47,163a25,25,0,0,1-5.07,7.46,24.24,24.24,0,0,1-5.15,3.92l.64.25a21.2,21.2,0,0,1,7.3,4.93,26,26,0,0,1,5.4,8.66,36.07,36.07,0,0,1,2.1,13.12A33.87,33.87,0,0,1,382,215.72a27,27,0,0,1-6.66,9.16,23,23,0,0,1-8.5,4.72A28.28,28.28,0,0,1,358.92,230.88Zm-16.5-5.17h2.5c1.59,0,3.18,0,4.76.06V131.64c-1.58.06-3.17.1-4.76.1h-2.5Zm23.84-47.17a22.21,22.21,0,0,1,3,6.44,39.09,39.09,0,0,1,1.47,8.37c.18,2.74.26,4.86.26,6.48a96.69,96.69,0,0,1-.83,14,28.77,28.77,0,0,1-2.55,8.87,14.46,14.46,0,0,1-1.07,1.78,18.78,18.78,0,0,0,5.56-3.37,22.12,22.12,0,0,0,5.42-7.51,29.21,29.21,0,0,0,2.24-12.3A31.31,31.31,0,0,0,378,190a21.19,21.19,0,0,0-4.34-7,16.3,16.3,0,0,0-5.61-3.82C367.48,179,366.87,178.73,366.26,178.54Zm-11.68,45.53a12.27,12.27,0,0,0,6.17-.69,6.18,6.18,0,0,0,2.54-2.88,24.67,24.67,0,0,0,2.06-7.37,92.29,92.29,0,0,0,.77-13.3c0-1.49-.08-3.57-.25-6.17a33.69,33.69,0,0,0-1.29-7.31,16.5,16.5,0,0,0-3-5.88,5.45,5.45,0,0,0-4.59-1.94h-2.42Zm0-52.38h1a7.33,7.33,0,0,0,4.47-1.16,7.68,7.68,0,0,0,2.47-3.45,21.07,21.07,0,0,0,1.23-5.77c.19-2.34.28-4.74.28-7.17a92.31,92.31,0,0,0-.48-10.2,25.45,25.45,0,0,0-1.51-6.57,6.87,6.87,0,0,0-2.34-3.14,7.77,7.77,0,0,0-5.11-.89Zm10.06-39.47a13.09,13.09,0,0,1,1.91,3.28,30,30,0,0,1,1.85,7.88,94.85,94.85,0,0,1,.52,10.76c0,2.56-.1,5.1-.3,7.56a25.64,25.64,0,0,1-1.54,7.14,15.15,15.15,0,0,1-.69,1.53A19,19,0,0,0,371,167a20,20,0,0,0,4.06-6,21.56,21.56,0,0,0,1.67-9A25.64,25.64,0,0,0,375,141.79a17.71,17.71,0,0,0-4.28-6.23,15.67,15.67,0,0,0-5.68-3.24Z" transform="translate(-325.07 -83.23)"/><path class="cls-1" d="M410,157.62a61.61,61.61,0,0,1,7.42-16.39,36.27,36.27,0,0,1,10.15-10.48,20,20,0,0,1,11-3.68A21.09,21.09,0,0,1,450,130.68,34.41,34.41,0,0,1,460,141a58.48,58.48,0,0,1,7.13,16.18,77.74,77.74,0,0,1,2.73,21.45,75.06,75.06,0,0,1-2.56,19.79,63.68,63.68,0,0,1-6.88,16.45,37.81,37.81,0,0,1-10,11.18,20.09,20.09,0,0,1-12,4.1,20.57,20.57,0,0,1-11.91-4,36.6,36.6,0,0,1-10-10.83,61,61,0,0,1-6.93-16.18A74.66,74.66,0,0,1,407.07,179,73.72,73.72,0,0,1,410,157.62ZM421.74,203a62.1,62.1,0,0,0,3.15,15.14q2.13,5.63,5.53,7.84a14.5,14.5,0,0,0,8.1,2.22q6.21,0,9.73-3.81a24.49,24.49,0,0,0,5.28-10.56,79.18,79.18,0,0,0,2.22-16q.47-9.23.46-20.06,0-9.72-.37-18.54a74.54,74.54,0,0,0-2.14-15.55A25.28,25.28,0,0,0,448.37,133q-3.56-4-9.85-4a12.42,12.42,0,0,0-9.4,3.68A23.86,23.86,0,0,0,423.76,143a79.26,79.26,0,0,0-2.44,15.82q-.58,9.16-.58,20.14A235.12,235.12,0,0,0,421.74,203Z" transform="translate(-325.07 -83.23)"/><path class="cls-1" d="M438.52,232.55a23.06,23.06,0,0,1-13.31-4.4,39.27,39.27,0,0,1-10.7-11.54,63.74,63.74,0,0,1-7.2-16.82,82.27,82.27,0,0,1,.31-42.88,64.63,64.63,0,0,1,7.72-17,38.8,38.8,0,0,1,10.85-11.17c8.54-5.59,17-5.22,25.09-.09a37,37,0,0,1,10.79,11,60.79,60.79,0,0,1,7.44,16.86,80.34,80.34,0,0,1,2.83,22.12A77.4,77.4,0,0,1,469.69,199a66.39,66.39,0,0,1-7.15,17.09A40.51,40.51,0,0,1,451.91,228,22.64,22.64,0,0,1,438.52,232.55Zm0-101.09a10,10,0,0,0-7.63,2.92,21.69,21.69,0,0,0-4.77,9.31A76.82,76.82,0,0,0,423.77,159c-.39,6-.58,12.73-.58,20a232.84,232.84,0,0,0,1,23.69h0a59.87,59.87,0,0,0,3,14.52c1.23,3.24,2.77,5.48,4.58,6.66a12,12,0,0,0,6.76,1.83c3.45,0,6.05-1,7.93-3a22.13,22.13,0,0,0,4.71-9.52,77.07,77.07,0,0,0,2.15-15.47c.3-6.12.46-12.83.46-19.94,0-6.39-.13-12.6-.38-18.43a71.78,71.78,0,0,0-2.06-15,22.9,22.9,0,0,0-4.78-9.67C444.64,132.49,442,131.46,438.52,131.46Zm-15.64,6.61a40.08,40.08,0,0,0-3.46,4.52,59.63,59.63,0,0,0-7.12,15.73A71.8,71.8,0,0,0,409.51,179,72.57,72.57,0,0,0,412,198.47,59.35,59.35,0,0,0,418.66,214a39.5,39.5,0,0,0,4.17,5.54c-.08-.19-.15-.39-.23-.59a64.92,64.92,0,0,1-3.29-15.75h0a237,237,0,0,1-1-24.21c0-7.36.2-14.18.59-20.29a81.59,81.59,0,0,1,2.52-16.33A34.52,34.52,0,0,1,422.88,138.07Zm31.14-.83a34.9,34.9,0,0,1,2.05,5.8,77.54,77.54,0,0,1,2.21,16.07c.26,5.9.38,12.18.38,18.64,0,7.2-.15,14-.46,20.19a82.47,82.47,0,0,1-2.3,16.46,34.81,34.81,0,0,1-1.58,4.72,41.28,41.28,0,0,0,4-5.57,61.28,61.28,0,0,0,6.6-15.82,72.46,72.46,0,0,0,2.48-19.15,76.12,76.12,0,0,0-2.63-20.78A56.47,56.47,0,0,0,458,142.3,38.3,38.3,0,0,0,454,137.24Z" transform="translate(-325.07 -83.23)"/><path class="cls-1" d="M514.59,129.29l14.51,69.15h.17L544,129.29h21v1.94h-7.72v95H565v1.94H537.49v-1.94h7.63v-95H545l-20.63,96.92H523l-20.72-96.92h-.17v95h7.72v1.94H493v-1.94h7.72v-95H493v-1.94Z" transform="translate(-325.07 -83.23)"/><path class="cls-1" d="M567.45,230.6H535v-6.84h7.63v-70L526.3,230.6H521l-16.46-77v70.14h7.72v6.84H490.58v-6.84h7.72V133.68h-7.72v-6.84h26L529.2,187l12.85-60.17h25.4v6.84h-7.72v90.08h7.72Zm-19.88-4.89h7.26v-94h-7.26Zm-42.7-94,18.77,87.82,4-18.67h-.34l-.58-1.95-14.1-67.2Z" transform="translate(-325.07 -83.23)"/><path class="cls-1" d="M587.56,131.23v-1.94h12.66q3.53,0,7-.21t7-.21A23.31,23.31,0,0,1,621,130a17.72,17.72,0,0,1,6.59,3.75,19.82,19.82,0,0,1,4.9,7.08,27.94,27.94,0,0,1,1.93,11.11A24,24,0,0,1,632.56,162a22.63,22.63,0,0,1-4.57,6.73,20.81,20.81,0,0,1-5.58,4,22.29,22.29,0,0,1-4.91,1.81v.55a28.32,28.32,0,0,1,6.8,1.81,18.51,18.51,0,0,1,6.45,4.37,23.31,23.31,0,0,1,4.87,7.85,33.47,33.47,0,0,1,1.93,12.21,31.46,31.46,0,0,1-2.48,13.34,24.47,24.47,0,0,1-6,8.33,20.39,20.39,0,0,1-7.59,4.23,25.76,25.76,0,0,1-7.21,1.18q-3.53,0-7-.14t-7-.14H587.56v-1.94h7.71v-95Zm23.31,42.91a9.59,9.59,0,0,0,6-1.67A10.07,10.07,0,0,0,620.1,168a23.34,23.34,0,0,0,1.39-6.46c.19-2.4.29-4.86.29-7.36a92.25,92.25,0,0,0-.51-10.48,27.3,27.3,0,0,0-1.67-7.22,8.27,8.27,0,0,0-8.47-5.62,12.79,12.79,0,0,0-1.85.13l-1.84.28v42.91Zm1.43,52.49a10.9,10.9,0,0,0,4.82-1,8.52,8.52,0,0,0,3.65-4,26.85,26.85,0,0,0,2.31-8.13,94,94,0,0,0,.8-13.67c0-1.58-.09-3.68-.26-6.32a36.12,36.12,0,0,0-1.38-7.85,18.89,18.89,0,0,0-3.44-6.73,7.89,7.89,0,0,0-6.5-2.85h-4.86v50.13A26.66,26.66,0,0,0,612.3,226.63Z" transform="translate(-325.07 -83.23)"/><path class="cls-1" d="M614.23,230.88q-3.57,0-7.1-.14t-6.91-.14H585.11v-6.84h7.72V133.68h-7.72v-6.84h15.11c2.29,0,4.58-.07,6.82-.2,4.73-.29,9.49-.6,14.7,1a20.3,20.3,0,0,1,7.49,4.26,22.23,22.23,0,0,1,5.53,7.94,30.38,30.38,0,0,1,2.13,12.08A26.47,26.47,0,0,1,634.78,163a25.21,25.21,0,0,1-5.08,7.46,24.19,24.19,0,0,1-5.14,3.92l.63.25a21.24,21.24,0,0,1,7.31,4.93,26,26,0,0,1,5.39,8.66A35.85,35.85,0,0,1,640,201.35a33.87,33.87,0,0,1-2.71,14.37,27,27,0,0,1-6.66,9.16,23.2,23.2,0,0,1-8.5,4.72A28.39,28.39,0,0,1,614.23,230.88Zm-16.51-5.17h2.5q2.4,0,4.77.06V131.64c-1.58.06-3.17.1-4.77.1h-2.5Zm23.85-47.17a22.19,22.19,0,0,1,3,6.44,39.11,39.11,0,0,1,1.48,8.37c.17,2.74.26,4.86.26,6.48a96.69,96.69,0,0,1-.83,14,29,29,0,0,1-2.55,8.87,15.81,15.81,0,0,1-1.07,1.78,18.78,18.78,0,0,0,5.56-3.37,22.25,22.25,0,0,0,5.42-7.51,29.36,29.36,0,0,0,2.24-12.3A31.08,31.08,0,0,0,633.34,190a21,21,0,0,0-4.33-7,16.4,16.4,0,0,0-5.61-3.82C622.78,179,622.17,178.73,621.57,178.54Zm-11.68,45.53a12.23,12.23,0,0,0,6.16-.69,6.19,6.19,0,0,0,2.55-2.88,24.67,24.67,0,0,0,2.06-7.37,92.29,92.29,0,0,0,.77-13.3c0-1.49-.09-3.57-.25-6.17a34.3,34.3,0,0,0-1.29-7.31,16.66,16.66,0,0,0-3-5.88,5.49,5.49,0,0,0-4.6-1.94h-2.41Zm0-52.38h1a7.37,7.37,0,0,0,4.48-1.16,7.59,7.59,0,0,0,2.46-3.45,20.36,20.36,0,0,0,1.23-5.77c.19-2.34.29-4.74.29-7.17a89.66,89.66,0,0,0-.49-10.2,25,25,0,0,0-1.51-6.57,6.86,6.86,0,0,0-2.33-3.14,7.79,7.79,0,0,0-5.11-.89ZM620,132.22a13.4,13.4,0,0,1,1.91,3.28,30,30,0,0,1,1.85,7.88,97.24,97.24,0,0,1,.52,10.76c0,2.56-.1,5.1-.3,7.56a26,26,0,0,1-1.54,7.14q-.32.79-.69,1.53a19.21,19.21,0,0,0,4.57-3.39,20.23,20.23,0,0,0,4.06-6,21.56,21.56,0,0,0,1.67-9,25.82,25.82,0,0,0-1.73-10.13,17.59,17.59,0,0,0-4.29-6.23,15.51,15.51,0,0,0-5.68-3.24Z" transform="translate(-325.07 -83.23)"/><path class="cls-1" d="M663.8,226.21l24.64-99.37,3,0,26.06,99.41h7.21v1.94H696.51v-1.94h7.8L694.58,189H674.45l-9.31,37.21h7.46v1.94H656.75v-1.94Zm11.07-39.16h19.29l-9.9-37.91Z" transform="translate(-325.07 -83.23)"/><path class="cls-1" d="M727.14,230.6H694.06v-6.84h7.08l-8.45-32.31H676.36l-8.08,32.31h6.77v6.84H654.3v-6.84h7.58l24-97,8.05,0,25.39,96.92h7.78Zm-20.43-4.89h8.1L690,130.87l-3.87,15.59,11.24,43h-.09ZM678,184.6h13l-6.66-25.52Z" transform="translate(-325.07 -83.23)"/><path class="cls-1" d="M765,129.29v1.94H758.4l17.11,48.46L791,131.23h-7.3v-1.94h16v1.94h-7.3l-16.18,51v44H784v1.94H756.31v-1.94H764V187.47l-19.45-56.24H738v-1.94Z" transform="translate(-325.07 -83.23)"/><path class="cls-1" d="M786.43,230.6H753.86v-6.84h7.71V187.88l-18.75-54.2h-7.25v-6.84h31.91v6.84h-5.61L775.39,172l12.21-38.32h-6.4v-6.84h20.92v6.84h-8l-15.53,48.89v41.19h7.8Zm-20-4.89h7.27V182L756,131.74h-8.66l19.14,55.32Z" transform="translate(-325.07 -83.23)"/><path class="cls-1" d="M863.3,131.23v-1.94H876q3.52,0,7-.21t7-.21a23.33,23.33,0,0,1,6.88,1.11,17.72,17.72,0,0,1,6.59,3.75,19.82,19.82,0,0,1,4.9,7.08,27.94,27.94,0,0,1,1.93,11.11A24,24,0,0,1,908.29,162a22.26,22.26,0,0,1-4.57,6.73,20.77,20.77,0,0,1-5.57,4,22.29,22.29,0,0,1-4.91,1.81v.55a28.13,28.13,0,0,1,6.79,1.81,18.55,18.55,0,0,1,6.46,4.37,23.31,23.31,0,0,1,4.87,7.85,33.47,33.47,0,0,1,1.93,12.21,31.46,31.46,0,0,1-2.48,13.34,24.47,24.47,0,0,1-6,8.33,20.47,20.47,0,0,1-7.59,4.23,25.82,25.82,0,0,1-7.21,1.18q-3.53,0-7-.14c-2.33-.09-4.66-.14-7-.14H863.3v-1.94H871v-95Zm23.31,42.91a9.61,9.61,0,0,0,6-1.67,10.07,10.07,0,0,0,3.27-4.51,23,23,0,0,0,1.38-6.46c.2-2.4.3-4.86.3-7.36a92.25,92.25,0,0,0-.51-10.48,27.3,27.3,0,0,0-1.67-7.22,8.27,8.27,0,0,0-8.47-5.62A12.79,12.79,0,0,0,885,131l-1.84.28v42.91ZM888,226.63a10.9,10.9,0,0,0,4.82-1,8.57,8.57,0,0,0,3.65-4,26.85,26.85,0,0,0,2.31-8.13,94,94,0,0,0,.8-13.67c0-1.58-.09-3.68-.26-6.32a36.73,36.73,0,0,0-1.38-7.85,19.06,19.06,0,0,0-3.44-6.73,7.89,7.89,0,0,0-6.5-2.85h-4.86v50.13A26.66,26.66,0,0,0,888,226.63Z" transform="translate(-325.07 -83.23)"/><path class="cls-1" d="M890,230.88q-3.57,0-7.1-.14T876,230.6H860.85v-6.84h7.71V133.68h-7.71v-6.84H876c2.29,0,4.58-.07,6.81-.2,4.74-.29,9.5-.6,14.71,1A20.3,20.3,0,0,1,905,131.9a22.23,22.23,0,0,1,5.53,7.94,30.55,30.55,0,0,1,2.13,12.08A26.47,26.47,0,0,1,910.52,163a25.21,25.21,0,0,1-5.08,7.46,24.24,24.24,0,0,1-5.15,3.92l.64.25a21.24,21.24,0,0,1,7.31,4.93,26,26,0,0,1,5.39,8.66,35.86,35.86,0,0,1,2.1,13.12c0,5.71-.9,10.54-2.7,14.37a26.89,26.89,0,0,1-6.67,9.16,23.08,23.08,0,0,1-8.49,4.72A28.39,28.39,0,0,1,890,230.88Zm-16.51-5.17H876c1.6,0,3.18,0,4.77.06V131.64c-1.58.06-3.18.1-4.77.1h-2.5Zm23.85-47.17a22.19,22.19,0,0,1,3,6.44,39.11,39.11,0,0,1,1.48,8.37c.17,2.74.25,4.86.25,6.48a96.89,96.89,0,0,1-.82,14,29,29,0,0,1-2.55,8.87,15.81,15.81,0,0,1-1.07,1.78,18.91,18.91,0,0,0,5.56-3.37,22.25,22.25,0,0,0,5.42-7.51,29.36,29.36,0,0,0,2.24-12.3A31.08,31.08,0,0,0,909.08,190a21,21,0,0,0-4.33-7,16.34,16.34,0,0,0-5.62-3.82C898.52,179,897.91,178.73,897.31,178.54Zm-11.68,45.53a12.24,12.24,0,0,0,6.16-.69,6.19,6.19,0,0,0,2.55-2.88,24.67,24.67,0,0,0,2.06-7.37,92.29,92.29,0,0,0,.77-13.3c0-1.49-.09-3.57-.25-6.17a34.3,34.3,0,0,0-1.29-7.31,16.66,16.66,0,0,0-3-5.88,5.49,5.49,0,0,0-4.6-1.94h-2.41Zm0-52.38h1a7.37,7.37,0,0,0,4.48-1.16,7.59,7.59,0,0,0,2.46-3.45,20.71,20.71,0,0,0,1.23-5.77c.19-2.34.29-4.74.29-7.17a92,92,0,0,0-.49-10.2,25,25,0,0,0-1.51-6.57,6.86,6.86,0,0,0-2.33-3.14,7.78,7.78,0,0,0-5.11-.89Zm10.06-39.47a13.4,13.4,0,0,1,1.91,3.28,30,30,0,0,1,1.85,7.88,97.24,97.24,0,0,1,.52,10.76c0,2.56-.11,5.1-.3,7.56a26.37,26.37,0,0,1-1.54,7.14,15.2,15.2,0,0,1-.7,1.53A19.06,19.06,0,0,0,902,167a20.23,20.23,0,0,0,4.06-6,21.73,21.73,0,0,0,1.66-9A25.83,25.83,0,0,0,906,141.79a17.59,17.59,0,0,0-4.29-6.23,15.51,15.51,0,0,0-5.68-3.24Z" transform="translate(-325.07 -83.23)"/><path class="cls-1" d="M965,129.29v1.94h-7.72v62.35q0,6.53.38,12.7a52,52,0,0,0,1.76,11,19.14,19.14,0,0,0,4.11,7.85,9.46,9.46,0,0,0,7.34,3,15.16,15.16,0,0,0,7.59-1.73,15.6,15.6,0,0,0,5.08-4.58,22.57,22.57,0,0,0,3.1-6.39,46.19,46.19,0,0,0,1.59-7.08,58.57,58.57,0,0,0,.59-6.67c.05-2.08.08-3.82.08-5.2V131.23h-7.63v-1.94H998v1.94h-7.8v65.13c0,1.48,0,3.35-.09,5.62a54.24,54.24,0,0,1-.67,7.15,52.17,52.17,0,0,1-1.76,7.5,21.75,21.75,0,0,1-3.44,6.73,16.75,16.75,0,0,1-14.17,6.74q-8.15,0-13.09-3a20.63,20.63,0,0,1-7.59-7.77,31.24,31.24,0,0,1-3.48-10.9,90.79,90.79,0,0,1-.84-12.36V131.23h-7.8v-1.94Z" transform="translate(-325.07 -83.23)"/><path class="cls-1" d="M970.07,232.55c-5.85,0-10.68-1.13-14.35-3.34a23.06,23.06,0,0,1-8.47-8.69,33.6,33.6,0,0,1-3.77-11.75,93.82,93.82,0,0,1-.86-12.69v-62.4h-7.8v-6.84H967.4v6.84h-7.72v59.9c0,4.27.13,8.49.37,12.56a49.72,49.72,0,0,0,1.68,10.51,16.91,16.91,0,0,0,3.56,6.87,7.05,7.05,0,0,0,5.53,2.19,12.85,12.85,0,0,0,6.38-1.42,13.28,13.28,0,0,0,4.29-3.87,20.18,20.18,0,0,0,2.76-5.69,44.28,44.28,0,0,0,1.51-6.71,56.1,56.1,0,0,0,.56-6.38c0-2.06.08-3.77.08-5.14V133.68h-7.63v-6.84h21.67v6.84h-7.79v62.68c0,1.49,0,3.39-.09,5.68a57.89,57.89,0,0,1-.7,7.47,53.48,53.48,0,0,1-1.85,7.85,24.44,24.44,0,0,1-3.82,7.49,20.18,20.18,0,0,1-6.48,5.52A19.9,19.9,0,0,1,970.07,232.55ZM947.52,131.74v64.34a88.9,88.9,0,0,0,.82,12,28.86,28.86,0,0,0,3.2,10.06,18.08,18.08,0,0,0,6.71,6.86,15.05,15.05,0,0,0,3.06,1.39A22.09,22.09,0,0,1,957,218a54.3,54.3,0,0,1-1.85-11.56c-.26-4.16-.39-8.48-.39-12.85V131.74Z" transform="translate(-325.07 -83.23)"/><path class="cls-1" d="M1023.16,197.33c.11,1.11.3,2.57.58,4.37s.69,3.75,1.22,5.83a61.56,61.56,0,0,0,2,6.39,32.33,32.33,0,0,0,3,6,22.61,22.61,0,0,0,3.73,4.86,14,14,0,0,0,3.44,2.43,8.38,8.38,0,0,0,3.11.84c1,0,1.88.06,2.72.06a11.28,11.28,0,0,0,7.3-2.29,16.3,16.3,0,0,0,4.48-5.62,26.47,26.47,0,0,0,2.31-7,36.33,36.33,0,0,0,.67-6.46,21.1,21.1,0,0,0-1.47-8.47,16.3,16.3,0,0,0-3.89-5.55,23.89,23.89,0,0,0-5.54-3.75l-6.38-3.13a47.59,47.59,0,0,1-6.37-3.75,22.81,22.81,0,0,1-5.54-5.55,28,28,0,0,1-3.9-8.4,45.46,45.46,0,0,1-1.46-12.5,37.58,37.58,0,0,1,1.51-10.69,32.22,32.22,0,0,1,4.19-9.1,22.79,22.79,0,0,1,6.42-6.38,14.51,14.51,0,0,1,8.09-2.43,13,13,0,0,1,4.86.83,27.8,27.8,0,0,1,3.69,1.74c1.07.6,2,1.18,2.81,1.73a4,4,0,0,0,2.23.83,1.66,1.66,0,0,0,1.55-.62,9.57,9.57,0,0,0,.79-2.29h1.35v26.38h-1.09c-.67-3.24-1.39-6.43-2.14-9.58a46,46,0,0,0-2.9-8.54,18.32,18.32,0,0,0-4.44-6.18,9.94,9.94,0,0,0-6.79-2.36,11.32,11.32,0,0,0-5.92,1.53,14.17,14.17,0,0,0-4.32,4,19.29,19.29,0,0,0-2.68,5.55,21.35,21.35,0,0,0-.92,6.25,18.31,18.31,0,0,0,1.55,8,17.86,17.86,0,0,0,4.07,5.49,26.64,26.64,0,0,0,5.74,4q3.23,1.66,6.63,3.48t6.62,3.95a23.86,23.86,0,0,1,5.75,5.49,27.51,27.51,0,0,1,4.07,8.05,38,38,0,0,1,1.55,11.67,48.49,48.49,0,0,1-1.68,12.91A36.52,36.52,0,0,1,1059,220.1a24.82,24.82,0,0,1-7.29,7.29,17.14,17.14,0,0,1-9.44,2.71,16.77,16.77,0,0,1-5.16-.83c-1.7-.56-3.3-1.14-4.78-1.74s-2.79-1.18-3.94-1.74a6.85,6.85,0,0,0-2.56-.83,2,2,0,0,0-1.68.63,6.87,6.87,0,0,0-.92,2.56h-1.34V197.33Z" transform="translate(-325.07 -83.23)"/><path class="cls-1" d="M1042.28,232.55a18.86,18.86,0,0,1-5.92-1c-1.77-.57-3.44-1.18-4.94-1.79s-2.9-1.23-4.09-1.8a9,9,0,0,0-1.37-.56,9.92,9.92,0,0,0-.32,1.23l-.42,1.93h-5.77V194.88h5.93l.21,2.21c.11,1.07.3,2.49.57,4.24s.67,3.62,1.17,5.6a59.25,59.25,0,0,0,1.94,6.14,29.55,29.55,0,0,0,2.75,5.58,20.61,20.61,0,0,0,3.32,4.37,11.56,11.56,0,0,0,2.81,2,5.82,5.82,0,0,0,2.19.61c3.76.18,6.42-.11,8.38-1.69a14.2,14.2,0,0,0,3.82-4.79,24.29,24.29,0,0,0,2.09-6.37,34.32,34.32,0,0,0,.63-6,18.79,18.79,0,0,0-1.26-7.48,14,14,0,0,0-3.31-4.74,21.74,21.74,0,0,0-5-3.36l-6.37-3.12a51.37,51.37,0,0,1-6.7-3.93,25.57,25.57,0,0,1-6.13-6.15,30.65,30.65,0,0,1-4.26-9.13,48.11,48.11,0,0,1-1.56-13.19,40.23,40.23,0,0,1,1.61-11.38,34.72,34.72,0,0,1,4.51-9.78,25.31,25.31,0,0,1,7.11-7.07,17.08,17.08,0,0,1,9.43-2.82,15.75,15.75,0,0,1,5.77,1,34.84,34.84,0,0,1,4,1.88c1.13.65,2.13,1.26,3,1.85a3.32,3.32,0,0,0,.54.31c.07-.24.16-.55.27-1l.47-1.85h5.7v31.28h-5.53l-.41-2c-.67-3.22-1.37-6.38-2.12-9.51a44.08,44.08,0,0,0-2.74-8.09,15.77,15.77,0,0,0-3.84-5.36,7.47,7.47,0,0,0-5.17-1.75,8.87,8.87,0,0,0-4.66,1.18,11.56,11.56,0,0,0-3.57,3.33,17,17,0,0,0-2.35,4.86,19.14,19.14,0,0,0-.81,5.54,16.19,16.19,0,0,0,1.3,7,15.49,15.49,0,0,0,3.51,4.74,24.34,24.34,0,0,0,5.23,3.6c2.15,1.11,4.37,2.28,6.65,3.48s4.62,2.61,6.83,4.08a26.1,26.1,0,0,1,6.34,6.05,30.09,30.09,0,0,1,4.44,8.77,40.35,40.35,0,0,1,1.68,12.43,51.32,51.32,0,0,1-1.77,13.56,39.17,39.17,0,0,1-5.06,11.4,27.33,27.33,0,0,1-8,8A19.61,19.61,0,0,1,1042.28,232.55Zm-16.44-10a8.42,8.42,0,0,1,3.53,1c-.5-.7-1-1.47-1.52-2.31a34.54,34.54,0,0,1-3.17-6.45l-.33-.9v8.82A5.5,5.5,0,0,1,1025.84,222.51ZM1027,145.7a35.43,35.43,0,0,0-1.4,10,43.25,43.25,0,0,0,1.36,11.81,25.44,25.44,0,0,0,3.55,7.66,20.46,20.46,0,0,0,4.94,5,45.56,45.56,0,0,0,6,3.56l6.38,3.13a26.6,26.6,0,0,1,6.11,4.14,18.78,18.78,0,0,1,4.48,6.37,23.49,23.49,0,0,1,1.68,9.46,39.37,39.37,0,0,1-.71,6.89c-.06.34-.13.67-.2,1a38.29,38.29,0,0,0,2.14-5.9A46.54,46.54,0,0,0,1063,196.5a35.52,35.52,0,0,0-1.43-10.9,25.54,25.54,0,0,0-3.69-7.35,21.41,21.41,0,0,0-5.16-4.92c-2.07-1.38-4.23-2.67-6.41-3.83s-4.46-2.35-6.6-3.46a29.29,29.29,0,0,1-6.27-4.32,20.37,20.37,0,0,1-4.62-6.23,20.73,20.73,0,0,1-1.8-9.12C1027,146.14,1027,145.92,1027,145.7Zm28.69-11.21c.37.65.72,1.33,1,2,.52,1.14,1,2.33,1.45,3.58v-5.58A5.43,5.43,0,0,1,1055.7,134.49Z" transform="translate(-325.07 -83.23)"/><path class="cls-1" d="M1108.2,131.23a14,14,0,0,0-5.53,1,10.83,10.83,0,0,0-4.36,3.61,24.89,24.89,0,0,0-3.44,7.16,86.08,86.08,0,0,0-2.77,11.66H1091V129.29h52.59V154.7h-1.09a86.08,86.08,0,0,0-2.77-11.66,25.15,25.15,0,0,0-3.44-7.16,11,11,0,0,0-4.36-3.61,14,14,0,0,0-5.54-1h-3v95h7.72v1.94h-27.59v-1.94h7.71v-95Z" transform="translate(-325.07 -83.23)"/><path class="cls-1" d="M1133.55,230.6h-32.49v-6.84h7.71V133.68h-.57a11.61,11.61,0,0,0-4.57.84,8.6,8.6,0,0,0-3.36,2.83,22.84,22.84,0,0,0-3.08,6.45,85.54,85.54,0,0,0-2.68,11.33l-.36,2h-5.59V126.84h57.49v30.31h-5.59l-.36-2a84.6,84.6,0,0,0-2.69-11.33,22.58,22.58,0,0,0-3.07-6.45,8.48,8.48,0,0,0-3.36-2.82,11.62,11.62,0,0,0-4.58-.85h-.57v90.08h7.72Zm-19.88-4.89h7.26v-94h-7.26Zm22-94a15.84,15.84,0,0,1,2.54,2.67,23.74,23.74,0,0,1,2.89,5.35v-8Zm-42.26,0v8a23.3,23.3,0,0,1,2.89-5.34,15.09,15.09,0,0,1,2.54-2.67Z" transform="translate(-325.07 -83.23)"/><path class="cls-1" d="M1195.09,129.29v1.94h-7.71v95h13.84a11.57,11.57,0,0,0,5.57-1.53,15.89,15.89,0,0,0,5.29-5.07,37.79,37.79,0,0,0,4.44-9.16,69.5,69.5,0,0,0,3.06-13.68h1.09v31.38H1167.5v-1.94h7.72v-95h-7.72v-1.94Z" transform="translate(-325.07 -83.23)"/><path class="cls-1" d="M1223.12,230.6h-58.07v-6.84h7.72V133.68h-7.72v-6.84h32.49v6.84h-7.71v90.08h11.39a9.07,9.07,0,0,0,4.4-1.23,13.63,13.63,0,0,0,4.45-4.32,35.87,35.87,0,0,0,4.14-8.57,67.83,67.83,0,0,0,3-13.2l.28-2.12h5.68Zm-13.41-4.89h8.52V212.92a38.61,38.61,0,0,1-4.14,8.1A21.19,21.19,0,0,1,1209.71,225.71Zm-32,0h7.27v-94h-7.27Z" transform="translate(-325.07 -83.23)"/><path class="cls-1" d="M1294.23,129.29V153h-1.09q-.42-2.35-1.43-6a35.86,35.86,0,0,0-2.81-7.15,21.21,21.21,0,0,0-4.65-6,10,10,0,0,0-7-2.57H1264v42.91h4.7a9.1,9.1,0,0,0,5.24-1.46,11.2,11.2,0,0,0,3.56-4.16,28.14,28.14,0,0,0,2.35-6.53,75.64,75.64,0,0,0,1.51-8.54h1.09v43.18h-1.09q-.58-4-1.38-7.77a30.44,30.44,0,0,0-2.14-6.6,13.16,13.16,0,0,0-3.31-4.51,7.36,7.36,0,0,0-4.91-1.67H1264v50.13h13.76a12,12,0,0,0,7-2.15,19.84,19.84,0,0,0,5.49-6,38.89,38.89,0,0,0,4-9.1,71.72,71.72,0,0,0,2.44-11.18h1.09v30.41h-53.59v-1.94h7.71v-95h-7.71v-1.94Z" transform="translate(-325.07 -83.23)"/><path class="cls-1" d="M1300.12,230.6h-58.49v-6.84h7.71V133.68h-7.71v-6.84h55v28.64h-5.59l-.36-2c-.27-1.52-.74-3.48-1.38-5.83a33.71,33.71,0,0,0-2.62-6.67,19,19,0,0,0-4.12-5.35,7.62,7.62,0,0,0-5.32-1.94H1266.4v38h2.25a6.68,6.68,0,0,0,3.86-1,8.89,8.89,0,0,0,2.78-3.29,26.14,26.14,0,0,0,2.13-6,72.11,72.11,0,0,0,1.46-8.27l.27-2.15h5.7v48.08h-5.66l-.3-2.09c-.38-2.61-.83-5.18-1.36-7.62a28.21,28.21,0,0,0-2-6.06,11,11,0,0,0-2.68-3.69,5,5,0,0,0-3.33-1.09h-3.17v45.23h11.31a9.45,9.45,0,0,0,5.56-1.71,17.61,17.61,0,0,0,4.81-5.31,36.89,36.89,0,0,0,3.72-8.53,70.3,70.3,0,0,0,2.35-10.81l.3-2.1h5.67Zm-13.55-4.89h8.65V213.28a38.34,38.34,0,0,1-3,6A23,23,0,0,1,1286.57,225.71Zm-32.33,0h7.26v-94h-7.26ZM1274.82,175a9.7,9.7,0,0,1,1.24.89,15.46,15.46,0,0,1,3.89,5.23V169c-.1.22-.22.44-.33.65a13.62,13.62,0,0,1-4.35,5Zm10.79-43.25.28.24a24,24,0,0,1,5.19,6.73c.24.47.48.95.7,1.43v-8.4Z" transform="translate(-325.07 -83.23)"/></svg>